<?xml version="1.0" standalone="no"?>
<!DOCTYPE svg PUBLIC "-//W3C//DTD SVG 20010904//EN"
 "http://www.w3.org/TR/2001/REC-SVG-20010904/DTD/svg10.dtd">
<svg version="1.0" xmlns="http://www.w3.org/2000/svg"
 width="512.000000pt" height="512.000000pt" viewBox="0 0 512.000000 512.000000"
 preserveAspectRatio="xMidYMid meet">
<metadata>
Created by potrace 1.14, written by Peter Selinger 2001-2017
</metadata>
<g transform="translate(0.000000,512.000000) scale(0.100000,-0.100000)"
fill="#000000" stroke="none">
<path d="M995 3828 c-43 -23 -76 -64 -87 -105 l-10 -43 -190 0 c-187 0 -189 0
-213 -25 -33 -32 -34 -86 -3 -115 21 -20 32 -20 633 -20 l612 0 21 -23 c31
-33 28 -72 -7 -108 l-29 -29 -762 0 -761 0 -24 -25 c-25 -24 -34 -77 -17 -101
21 -33 50 -34 701 -34 638 0 651 0 671 -20 31 -31 27 -83 -11 -114 l-31 -26
-564 0 -565 0 -24 -25 c-35 -34 -34 -86 1 -114 26 -21 34 -21 741 -21 484 0
721 -3 734 -11 29 -15 40 -52 28 -89 -22 -62 16 -60 -926 -60 -907 -1 -876 1
-901 -47 -18 -34 -14 -62 13 -88 l24 -25 625 0 625 0 20 -26 c24 -31 26 -43 9
-79 -23 -51 -47 -55 -303 -55 -129 0 -235 -3 -235 -7 0 -5 -12 -143 -26 -307
-36 -414 -46 -399 247 -404 l186 -4 17 72 c75 335 449 533 742 394 84 -39 168
-123 209 -208 33 -67 61 -189 53 -233 -3 -17 27 -18 806 -18 l809 0 13 65 c19
92 66 181 135 255 102 109 224 170 363 181 274 24 506 -188 506 -461 0 -44 1
-45 33 -45 75 0 143 40 166 99 16 38 73 717 66 776 -11 91 -48 143 -302 419
-209 228 -249 268 -300 292 l-58 29 -307 3 c-231 2 -308 6 -308 15 0 7 7 84
15 172 19 210 19 269 -1 301 -38 57 46 54 -1456 54 -989 -1 -1389 -4 -1403
-12z m3449 -682 c25 -13 107 -94 230 -228 105 -115 192 -213 194 -217 3 -10
-937 -11 -942 -2 -2 3 5 101 15 216 10 116 19 220 19 233 l0 23 223 -3 c195
-3 227 -5 261 -22z"/>
<path d="M1645 2077 c-168 -44 -300 -182 -335 -352 -34 -164 47 -333 194 -405
201 -99 463 1 567 217 29 59 34 81 37 163 5 123 -17 186 -94 269 -92 100 -236
142 -369 108z m152 -208 c61 -23 112 -100 113 -169 0 -51 -42 -133 -84 -165
-167 -127 -380 24 -300 213 42 103 170 160 271 121z"/>
<path d="M4271 2075 c-219 -62 -368 -281 -331 -487 46 -254 304 -379 546 -264
266 126 345 465 154 656 -90 90 -245 130 -369 95z m167 -209 c183 -96 100
-376 -112 -378 -58 -1 -98 16 -138 59 -116 122 -9 333 170 333 29 0 65 -6 80
-14z"/>
</g>
</svg>
